<svg version="1.1" viewBox="0.0 0.0 256.0 256.0" fill="none" stroke="none" stroke-linecap="square" stroke-miterlimit="10" xmlns:xlink="http://www.w3.org/1999/xlink" xmlns="http://www.w3.org/2000/svg"><clipPath id="p.0"><path d="m0 0l256.0 0l0 256.0l-256.0 0l0 -256.0z" clip-rule="nonzero"/></clipPath><g clip-path="url(#p.0)"><path fill="#000000" fill-opacity="0.0" d="m0 0l256.0 0l0 256.0l-256.0 0z" fill-rule="evenodd"/><path fill="#fce5cd" d="m19.827684 77.43495l23.68265 -8.591103l0 0c3.3071213 -1.1996918 6.9580917 -1.0374832 10.1497345 0.45092773c3.1916466 1.4884186 5.662525 4.181122 6.869072 7.4857483l33.70872 92.32528c4.89843 13.416367 -2.014946 28.24089 -15.441452 33.11148l0 0l0 0c-13.426506 4.87059 -28.281803 -2.0571442 -33.180233 -15.473511l-33.70872 -92.32528l0 0c-2.5125027 -6.881531 1.0335045 -14.485321 7.92023 -16.983543z" fill-rule="evenodd"/><path stroke="#000000" stroke-width="8.0" stroke-linejoin="round" stroke-linecap="butt" d="m19.827684 77.43495l23.68265 -8.591103l0 0c3.3071213 -1.1996918 6.9580917 -1.0374832 10.1497345 0.45092773c3.1916466 1.4884186 5.662525 4.181122 6.869072 7.4857483l33.70872 92.32528c4.89843 13.416367 -2.014946 28.24089 -15.441452 33.11148l0 0l0 0c-13.426506 4.87059 -28.281803 -2.0571442 -33.180233 -15.473511l-33.70872 -92.32528l0 0c-2.5125027 -6.881531 1.0335045 -14.485321 7.92023 -16.983543z" fill-rule="evenodd"/><path fill="#fce5cd" d="m162.51215 241.38797l-35.102364 0l0 0c-22.781883 0 -44.630684 -9.050079 -60.739914 -25.159302c-16.109226 -16.109222 -25.159298 -37.958023 -25.159298 -60.739914l0 -85.899216c0 -9.460449E-4 7.7438354E-4 -0.0017242432 0.0017242432 -0.0017242432l206.89906 0.0017242432l0 0c9.460449E-4 0 0.0017242432 7.7819824E-4 0.0017242432 0.0017242432l-0.0017242432 85.89749l0 0c0 47.440826 -38.45839 85.899216 -85.899216 85.899216z" fill-rule="evenodd"/><path stroke="#000000" stroke-width="8.0" stroke-linejoin="round" stroke-linecap="butt" d="m162.51215 241.38797l-35.102364 0l0 0c-22.781883 0 -44.630684 -9.050079 -60.739914 -25.159302c-16.109226 -16.109222 -25.159298 -37.958023 -25.159298 -60.739914l0 -85.899216c0 -9.460449E-4 7.7438354E-4 -0.0017242432 0.0017242432 -0.0017242432l206.89906 0.0017242432l0 0c9.460449E-4 0 0.0017242432 7.7819824E-4 0.0017242432 0.0017242432l-0.0017242432 85.89749l0 0c0 47.440826 -38.45839 85.899216 -85.899216 85.899216z" fill-rule="evenodd"/><path fill="#fce5cd" d="m119.32769 14.614046l0 0l0 0c6.859192 0 13.437447 2.724802 18.28762 7.57498c4.850174 4.850178 7.5749817 11.428432 7.5749817 18.287617l0 29.112896c0 2.4414062E-4 -1.9836426E-4 4.348755E-4 -4.272461E-4 4.348755E-4l-51.72477 -4.348755E-4l0 0c-2.4414062E-4 0 -4.348755E-4 -1.9073486E-4 -4.348755E-4 -4.272461E-4l4.348755E-4 -29.112469l0 0c0 -14.283518 11.579079 -25.862597 25.862595 -25.862597z" fill-rule="evenodd"/><path stroke="#000000" stroke-width="8.0" stroke-linejoin="round" stroke-linecap="butt" d="m119.32769 14.614046l0 0l0 0c6.859192 0 13.437447 2.724802 18.28762 7.57498c4.850174 4.850178 7.5749817 11.428432 7.5749817 18.287617l0 29.112896c0 2.4414062E-4 -1.9836426E-4 4.348755E-4 -4.272461E-4 4.348755E-4l-51.72477 -4.348755E-4l0 0c-2.4414062E-4 0 -4.348755E-4 -1.9073486E-4 -4.348755E-4 -4.272461E-4l4.348755E-4 -29.112469l0 0c0 -14.283518 11.579079 -25.862597 25.862595 -25.862597z" fill-rule="evenodd"/><path fill="#fce5cd" d="m67.60249 14.614046l0 0l0 0c6.859192 0 13.437439 2.724802 18.28762 7.57498c4.850174 4.850178 7.5749817 11.428432 7.5749817 18.287617l0 29.112896c0 2.4414062E-4 -1.9836426E-4 4.348755E-4 -4.348755E-4 4.348755E-4l-51.724766 -4.348755E-4l0 0c-2.3651123E-4 0 -4.310608E-4 -1.9073486E-4 -4.310608E-4 -4.272461E-4l4.310608E-4 -29.112469l0 0c0 -14.283518 11.5790825 -25.862597 25.862598 -25.862597z" fill-rule="evenodd"/><path stroke="#000000" stroke-width="8.0" stroke-linejoin="round" stroke-linecap="butt" d="m67.60249 14.614046l0 0l0 0c6.859192 0 13.437439 2.724802 18.28762 7.57498c4.850174 4.850178 7.5749817 11.428432 7.5749817 18.287617l0 29.112896c0 2.4414062E-4 -1.9836426E-4 4.348755E-4 -4.348755E-4 4.348755E-4l-51.724766 -4.348755E-4l0 0c-2.3651123E-4 0 -4.310608E-4 -1.9073486E-4 -4.310608E-4 -4.272461E-4l4.310608E-4 -29.112469l0 0c0 -14.283518 11.5790825 -25.862597 25.862598 -25.862597z" fill-rule="evenodd"/><path fill="#fce5cd" d="m170.55919 18.83959l0.98739624 0l0 0c6.728256 0 13.180923 2.6727867 17.938522 7.43038c4.757599 4.7575912 7.430374 11.21027 7.430374 17.938522l0 25.3689c0 2.3651123E-4 -1.8310547E-4 4.272461E-4 -4.272461E-4 4.272461E-4l-51.724762 -4.272461E-4l0 0c-2.4414062E-4 0 -4.272461E-4 -1.9073486E-4 -4.272461E-4 -4.348755E-4l4.272461E-4 -25.368465l0 0c0 -14.010859 11.3580475 -25.368902 25.368896 -25.368902z" fill-rule="evenodd"/><path stroke="#000000" stroke-width="8.0" stroke-linejoin="round" stroke-linecap="butt" d="m170.55919 18.83959l0.98739624 0l0 0c6.728256 0 13.180923 2.6727867 17.938522 7.43038c4.757599 4.7575912 7.430374 11.21027 7.430374 17.938522l0 25.3689c0 2.3651123E-4 -1.8310547E-4 4.272461E-4 -4.272461E-4 4.272461E-4l-51.724762 -4.272461E-4l0 0c-2.4414062E-4 0 -4.272461E-4 -1.9073486E-4 -4.272461E-4 -4.348755E-4l4.272461E-4 -25.368465l0 0c0 -14.010859 11.3580475 -25.368902 25.368896 -25.368902z" fill-rule="evenodd"/><path fill="#fce5cd" d="m218.04669 27.290678l9.462784 0l0 0c5.6043396 0 10.9791565 2.2263165 14.942017 6.189188c3.9628754 3.9628677 6.1891937 9.337673 6.1891937 14.94202l0 21.131207c0 2.3651123E-4 -1.9836426E-4 4.272461E-4 -4.272461E-4 4.272461E-4l-51.724777 -4.272461E-4l0 0c-2.2888184E-4 0 -4.272461E-4 -1.9836426E-4 -4.272461E-4 -4.348755E-4l4.272461E-4 -21.130772l0 0c0 -11.6704445 9.46077 -21.131208 21.13121 -21.131208z" fill-rule="evenodd"/><path stroke="#000000" stroke-width="8.0" stroke-linejoin="round" stroke-linecap="butt" d="m218.04669 27.290678l9.462784 0l0 0c5.6043396 0 10.9791565 2.2263165 14.942017 6.189188c3.9628754 3.9628677 6.1891937 9.337673 6.1891937 14.94202l0 21.131207c0 2.3651123E-4 -1.9836426E-4 4.272461E-4 -4.272461E-4 4.272461E-4l-51.724777 -4.272461E-4l0 0c-2.2888184E-4 0 -4.272461E-4 -1.9836426E-4 -4.272461E-4 -4.348755E-4l4.272461E-4 -21.130772l0 0c0 -11.6704445 9.46077 -21.131208 21.13121 -21.131208z" fill-rule="evenodd"/><path fill="#000000" fill-opacity="0.0" d="m45.70978 69.58734l198.96959 0" fill-rule="evenodd"/><path stroke="#fce5cd" stroke-width="12.0" stroke-linejoin="round" stroke-linecap="butt" d="m45.70978 69.58734l198.96959 0" fill-rule="evenodd"/></g></svg>
